<svg width="171" height="44" viewBox="0 0 171 44" fill="none" xmlns="http://www.w3.org/2000/svg">
<path d="M50.518 7.34384V27.8304L38.226 17.0827V27.9003H33.8959V7.45248L46.1257 18.2623V7.34384H50.518Z" fill="#000177"/>
<path d="M69.8408 24.1056V27.9003H54.7629V7.34384H69.8408V11.1308H59.0931V15.7325H67.0471V19.4418H59.0931V24.0978H69.8408V24.1056Z" fill="#000177"/>
<path d="M81.6204 28.1872C80.2377 28.1972 78.8683 27.9169 77.6007 27.3647C76.3705 26.8312 75.2536 26.0673 74.3104 25.1143C72.3597 23.1329 71.2718 20.4605 71.284 17.6801C71.2738 14.9024 72.3616 12.2331 74.3104 10.2537C75.2536 9.30064 76.3705 8.53677 77.6007 8.00329C78.8713 7.46067 80.2387 7.18094 81.6204 7.18094C83.0021 7.18094 84.3694 7.46067 85.6401 8.00329C86.8692 8.53877 87.9857 9.30239 88.9304 10.2537C90.8792 12.2331 91.967 14.9024 91.9568 17.6801C91.969 20.4605 90.8811 23.1329 88.9304 25.1143C87.9857 26.0656 86.8692 26.8292 85.6401 27.3647C84.3725 27.9169 83.0031 28.1972 81.6204 28.1872ZM81.6204 11.5108C80.8189 11.5028 80.025 11.6669 79.2924 11.992C78.586 12.3078 77.9481 12.7586 77.4144 13.3189C76.8709 13.8937 76.4393 14.5648 76.1418 15.2978C75.5209 16.8334 75.5209 18.5501 76.1418 20.0857C76.4415 20.8106 76.873 21.4736 77.4144 22.0413C77.9456 22.6064 78.584 23.0601 79.2924 23.376C80.0193 23.6935 80.8039 23.8574 81.5971 23.8574C82.3903 23.8574 83.175 23.6935 83.9019 23.376C84.6091 23.0582 85.2471 22.6047 85.7798 22.0413C86.3186 21.4716 86.7497 20.809 87.0524 20.0857C87.6733 18.5501 87.6733 16.8334 87.0524 15.2978C86.7519 14.5663 86.3207 13.8958 85.7798 13.3189C85.2447 12.7602 84.6072 12.3097 83.9019 11.992C83.1835 11.6734 82.4062 11.5095 81.6204 11.5108Z" fill="#000177"/>
<path d="M103.209 17.657L111.745 27.9003H106.561L100.64 20.7377L98.6615 23.1278V27.9003H94.6729V7.34384H98.646V16.912L106.585 7.34384H111.745L103.209 17.657Z" fill="#000177"/>
<path d="M127.025 27.9004L123.013 21.6148C122.586 21.6148 122.12 21.6148 121.608 21.6148H118.613V27.9004H114.283V7.34399H123.99C124.903 7.33792 125.808 7.51703 126.649 7.87049C127.491 8.22395 128.252 8.74441 128.887 9.40041C129.517 10.0576 130.019 10.8259 130.369 11.6664C130.729 12.5481 130.911 13.4922 130.905 14.4445C130.945 15.6612 130.618 16.862 129.966 17.8899C129.308 18.8689 128.458 19.7034 127.467 20.3421L132.464 27.9004H127.025ZM118.613 17.8123H120.871H122.609C123.057 17.8205 123.506 17.8023 123.952 17.758C124.321 17.7194 124.678 17.6051 125.001 17.4222C125.324 17.2393 125.606 16.9917 125.83 16.6949C126.333 16.0259 126.591 15.2037 126.559 14.3669C126.604 13.5663 126.344 12.7784 125.83 12.163C125.341 11.6233 124.674 11.2788 123.952 11.193C123.633 11.193 123.176 11.1387 122.586 11.1309C121.996 11.1231 121.399 11.1309 120.809 11.1309H118.582L118.613 17.8123Z" fill="#000177"/>
<path d="M150.049 24.1056V27.9003H134.94V7.34384H150.049V11.1308H139.27V15.7325H147.224V19.4418H139.27V24.0978H150.049V24.1056Z" fill="#000177"/>
<path d="M161.634 7.2582C162.91 7.39681 164.15 7.77042 165.289 8.36013C166.4 8.92604 167.397 9.69152 168.231 10.6183C169.072 11.5544 169.742 12.6314 170.209 13.7999C170.694 15.0088 170.942 16.2998 170.939 17.6024C170.949 18.8883 170.709 20.1639 170.233 21.3583C169.783 22.502 169.128 23.5539 168.3 24.4623C167.463 25.3793 166.47 26.1411 165.367 26.7127C164.199 27.3176 162.937 27.7191 161.634 27.9C160.88 27.9979 160.121 28.0523 159.361 28.063C158.484 28.063 157.63 28.063 156.808 28.063C155.853 28.063 154.875 27.9854 153.874 27.931V7.28924C154.914 7.23492 155.931 7.19612 156.916 7.1806C157.754 7.1806 158.616 7.1806 159.485 7.1806C160.354 7.1806 161.068 7.20388 161.634 7.2582ZM161.634 23.7173C162.309 23.608 162.956 23.3653 163.536 23.0034C164.116 22.6427 164.624 22.1769 165.033 21.6299C165.451 21.0648 165.781 20.4394 166.011 19.7752C166.248 19.0805 166.368 18.3517 166.368 17.6179C166.371 16.8952 166.244 16.1779 165.996 15.4994C165.757 14.8385 165.414 14.2202 164.979 13.668C164.542 13.1357 164.017 12.6817 163.427 12.3255C162.866 11.977 162.245 11.7374 161.596 11.6194C161.278 11.5618 160.956 11.5307 160.633 11.5262C160.253 11.5262 159.857 11.5262 159.508 11.5262C159.159 11.5262 158.655 11.5728 158.212 11.6038V23.7173C158.6 23.7561 158.988 23.7794 159.4 23.8027C159.811 23.826 160.113 23.8027 160.502 23.8027C160.875 23.7977 161.249 23.7692 161.619 23.7173H161.634Z" fill="#000177"/>
<path d="M34.3849 36.5453H36.193C38.1718 36.5453 39.297 37.4533 39.297 39.1139C39.297 40.7746 38.1873 41.6903 36.193 41.6903H35.5023V43.7234H34.3849V36.5453ZM36.1464 40.7047C37.5588 40.7047 38.133 40.2081 38.133 39.1527C38.133 38.0974 37.551 37.6007 36.1464 37.6007H35.5023V40.7047H36.1464Z" fill="#FF9700"/>
<path d="M44.9463 40.1378C44.9417 39.4051 45.1547 38.6874 45.5582 38.0758C45.9618 37.4642 46.5378 36.9862 47.2133 36.7022C47.8888 36.4182 48.6334 36.3412 49.3528 36.4807C50.0721 36.6203 50.7338 36.9702 51.2541 37.4862C51.7745 38.0021 52.1299 38.6609 52.2755 39.379C52.4211 40.0972 52.3503 40.8424 52.072 41.5202C51.7937 42.1981 51.3205 42.7781 50.7124 43.1868C50.1042 43.5955 49.3884 43.8145 48.6556 43.8161C48.168 43.8276 47.683 43.7406 47.2298 43.5602C46.7766 43.3799 46.3644 43.1099 46.0181 42.7664C45.6717 42.4229 45.3983 42.0131 45.2141 41.5614C45.0299 41.1097 44.9388 40.6255 44.9463 40.1378ZM51.2087 40.1378C51.1859 39.6366 51.0163 39.1531 50.7211 38.7474C50.4259 38.3417 50.018 38.0317 49.548 37.8558C49.0781 37.68 48.5669 37.646 48.0779 37.7582C47.5888 37.8704 47.1435 38.1238 46.7972 38.4869C46.451 38.85 46.219 39.3068 46.1301 39.8006C46.0413 40.2945 46.0994 40.8035 46.2974 41.2645C46.4954 41.7256 46.8244 42.1183 47.2436 42.394C47.6629 42.6696 48.1539 42.816 48.6556 42.815C49.0029 42.8187 49.3472 42.7511 49.6673 42.6164C49.9874 42.4816 50.2764 42.2826 50.5165 42.0316C50.7565 41.7807 50.9425 41.4831 51.0629 41.1573C51.1833 40.8316 51.2356 40.4846 51.2164 40.1378H51.2087Z" fill="#FF9700"/>
<path d="M57.4633 36.5451H58.6351L59.9077 40.3709C60.0397 40.7666 60.1793 41.3952 60.1793 41.3952C60.1793 41.3952 60.3578 40.7821 60.5285 40.3709L62.2435 36.4908L63.9663 40.3709C64.0992 40.7056 64.2131 41.0476 64.3077 41.3952C64.3077 41.3952 64.4551 40.7666 64.5871 40.3709L65.8597 36.5451H66.9461L64.4629 43.8008H64.3232L62.5462 39.5405C62.3987 39.1913 62.2435 38.6636 62.2435 38.6636C62.2435 38.6636 62.0806 39.1913 61.9331 39.5405L60.1017 43.8163H59.9698L57.4633 36.5451Z" fill="#FF9700"/>
<path d="M72.7507 36.5453H77.3059V37.5309H73.8682V39.7891H76.7239V40.7435H73.8682V42.7456H77.4533V43.7234H72.7507V36.5453Z" fill="#FF9700"/>
<path d="M88.7751 43.7234H87.487L86.2221 41.6204H84.6701V43.7234H83.5449V36.5453H85.3607C87.3395 36.5453 88.4647 37.4533 88.4647 39.0984C88.491 39.5371 88.3901 39.9741 88.1739 40.3569C87.9578 40.7396 87.6357 41.0517 87.2464 41.2557L88.7751 43.7234ZM85.3607 40.6659C86.7886 40.6659 87.3551 40.1615 87.3551 39.1139C87.3551 38.0663 86.7653 37.5619 85.3607 37.5619H84.7322V40.6659H85.3607Z" fill="#FF9700"/>
<path d="M103.279 37.5309H101.393V36.5453H106.313V37.5309H104.427V43.7389H103.318L103.279 37.5309Z" fill="#FF9700"/>
<path d="M111.613 40.1378C111.608 39.4051 111.821 38.6874 112.225 38.0758C112.629 37.4642 113.205 36.9862 113.88 36.7022C114.556 36.4182 115.3 36.3412 116.019 36.4807C116.739 36.6203 117.401 36.9702 117.921 37.4862C118.441 38.0021 118.797 38.6609 118.942 39.379C119.088 40.0972 119.017 40.8424 118.739 41.5202C118.46 42.1981 117.987 42.7781 117.379 43.1868C116.771 43.5955 116.055 43.8145 115.322 43.8161C114.835 43.8276 114.35 43.7406 113.897 43.5602C113.443 43.3799 113.031 43.1099 112.685 42.7664C112.338 42.4229 112.065 42.0131 111.881 41.5614C111.697 41.1097 111.606 40.6255 111.613 40.1378ZM117.875 40.1378C117.853 39.6366 117.683 39.1531 117.388 38.7474C117.093 38.3417 116.685 38.0317 116.215 37.8558C115.745 37.68 115.234 37.646 114.745 37.7582C114.256 37.8704 113.81 38.1238 113.464 38.4869C113.118 38.85 112.886 39.3068 112.797 39.8006C112.708 40.2945 112.766 40.8035 112.964 41.2645C113.162 41.7256 113.491 42.1183 113.91 42.394C114.33 42.6696 114.821 42.816 115.322 42.815C115.669 42.8177 116.012 42.7493 116.332 42.614C116.651 42.4788 116.939 42.2796 117.178 42.0288C117.417 41.7779 117.603 41.4807 117.723 41.1555C117.842 40.8303 117.894 40.4839 117.875 40.1378Z" fill="#FF9700"/>
<path d="M134.288 41.0923L131.564 36.5371H132.798L134.42 39.5403C134.551 39.7765 134.696 40.0045 134.855 40.2232C135.02 40.009 135.165 39.7804 135.289 39.5403L136.841 36.5837H137.99L135.382 41.0768V43.7618H134.265L134.288 41.0923Z" fill="#FF9700"/>
<path d="M143.259 40.1381C143.259 37.9963 144.725 36.4521 146.557 36.4521C148.388 36.4521 149.847 38.0041 149.847 40.1381C149.847 42.2721 148.38 43.8164 146.557 43.8164C144.733 43.8164 143.259 42.2799 143.259 40.1381ZM148.83 40.1381C148.83 38.5861 147.891 37.4531 146.557 37.4531C145.222 37.4531 144.275 38.6094 144.275 40.1381C144.275 41.6668 145.222 42.8153 146.557 42.8153C147.891 42.8153 148.83 41.6668 148.83 40.1381Z" fill="#FF9700"/>
<path d="M155.659 41.2014V36.5453H156.753V41.1393C156.783 41.5813 156.979 41.9955 157.303 42.2981C157.626 42.6007 158.053 42.769 158.496 42.769C158.939 42.769 159.365 42.6007 159.688 42.2981C160.012 41.9955 160.208 41.5813 160.238 41.1393V36.5453H161.41V41.2014C161.41 42.9474 160.106 43.8165 158.554 43.8165C157.002 43.8165 155.659 42.9474 155.659 41.2014Z" fill="#FF9700"/>
<path d="M15.1554 15.0802L6.61152 5.01535L6.60376 8.23578L15.1554 18.3704V15.0802Z" fill="url(#paint0_linear_1_166)"/>
<path d="M15.1552 21.0793V18.371L6.60365 8.23636L6.59589 10.8903L15.1552 21.0793Z" fill="url(#paint1_linear_1_166)"/>
<path d="M0.256248 4.23197V27.2096C1.34113 27.7987 2.61167 27.9461 3.8026 27.6208C5.67278 27.1242 6.79799 25.7041 6.79799 24.5168V2.05915C6.79799 1.28315 6.59623 0.941702 5.86678 0.7865C4.56734 0.677011 3.27276 1.04689 2.22731 1.82635C1.36369 2.31719 0.684909 3.07775 0.295048 3.99141C0.266547 4.0683 0.253366 4.15002 0.256248 4.23197Z" fill="url(#paint2_linear_1_166)"/>
<path d="M14.9924 10.0522V34.4343C16.0788 35.0188 17.3475 35.166 18.5388 34.8456C20.409 34.349 21.5342 32.9289 21.5342 31.7416V8.01902C21.5342 7.24301 21.3324 6.90157 20.603 6.74637C19.3035 6.63688 18.0089 7.00676 16.9635 7.78622C16.05 8.27323 15.3482 9.08002 14.9924 10.0522Z" fill="url(#paint3_linear_1_166)"/>
<path d="M16.9635 7.78625C16.0383 8.28827 15.335 9.11896 14.9924 10.1143V34.4343C16.0436 35.0038 17.2691 35.1614 18.4301 34.8767V7.04904C17.9161 7.24125 17.4244 7.48842 16.9635 7.78625Z" fill="url(#paint4_linear_1_166)"/>
<path d="M2.22713 1.82622C1.36859 2.31395 0.692832 3.06873 0.302632 3.97576C0.271033 4.06279 0.255265 4.15478 0.256072 4.24737V27.2094C1.2832 27.7655 2.47773 27.9282 3.61618 27.6673V1.12006C3.13012 1.30706 2.66464 1.5437 2.22713 1.82622Z" fill="url(#paint5_linear_1_166)"/>
<path d="M21.6506 22.9182V26.4879C21.3624 26.9392 20.9749 27.3188 20.5176 27.5976C19.8157 28.037 19 28.2603 18.1721 28.2396C17.3442 28.2189 16.5407 27.9551 15.8616 27.4812C14.5346 26.5112 11.9816 23.6011 6.5495 17.137C1.62962 11.1928 0.302643 9.40019 0 8.97339V6.50569C0 5.396 0.256082 5.396 0.256082 5.396V5.4736C0.256082 5.6288 2.5841 8.57763 6.26238 13.0629C9.94066 17.5483 12.4704 20.3962 13.8828 21.9715C15.2951 23.5468 16.4902 24.4858 18.0034 24.6255C18.5798 24.6854 19.1621 24.6068 19.702 24.3962C20.2419 24.1857 20.7238 23.8492 21.1074 23.4149C21.2611 23.2249 21.3986 23.0224 21.5187 22.8096V22.701C21.573 22.6854 21.6506 22.7553 21.6506 22.9182Z" fill="url(#paint6_linear_1_166)"/>
<path d="M6.27014 19.3641C9.08705 22.8173 10.4606 24.4237 13.65 27.9002C15.3494 29.7704 16.3738 30.2282 18.1508 30.3368C18.7924 30.3676 19.4323 30.2483 20.0197 29.9883C20.6071 29.7283 21.1256 29.3348 21.5342 28.8391C21.5342 28.8391 21.6506 28.7693 21.6506 28.5132V26.4878C21.3624 26.9392 20.9749 27.3188 20.5176 27.5975C19.8164 28.0389 19.0004 28.2634 18.172 28.2426C17.3437 28.2219 16.5399 27.957 15.8616 27.4811C14.5346 26.5111 11.9816 23.6011 6.5495 17.137C1.62962 11.185 0.302643 9.40016 0 8.97336V11.604C0.000872926 11.6483 0.0143319 11.6913 0.0388004 11.7282C0.318163 12.0619 1.99434 14.1648 6.27014 19.3641Z" fill="url(#paint7_linear_1_166)"/>
<defs>
<linearGradient id="paint0_linear_1_166" x1="-5.33899" y1="13.1712" x2="21.8601" y2="10.6957" gradientUnits="userSpaceOnUse">
<stop offset="0.19" stop-color="#FFEAA9"/>
<stop offset="0.44" stop-color="#FFD348"/>
<stop offset="0.68" stop-color="#FF9B1C"/>
<stop offset="1" stop-color="#FF4A00"/>
</linearGradient>
<linearGradient id="paint1_linear_1_166" x1="1.00863" y1="-4.22632" x2="11.8495" y2="16.5086" gradientUnits="userSpaceOnUse">
<stop offset="0.19" stop-color="#FFEAA9"/>
<stop offset="0.44" stop-color="#FFD348"/>
<stop offset="0.68" stop-color="#FF9B1C"/>
<stop offset="1" stop-color="#FF4A00"/>
</linearGradient>
<linearGradient id="paint2_linear_1_166" x1="2.07987" y1="14.2114" x2="6.85231" y2="14.3433" gradientUnits="userSpaceOnUse">
<stop offset="0.32" stop-color="#FFA200"/>
<stop offset="0.51" stop-color="#FF8E00"/>
<stop offset="0.88" stop-color="#FF5B00"/>
<stop offset="1" stop-color="#FF4A00"/>
</linearGradient>
<linearGradient id="paint3_linear_1_166" x1="15.7452" y1="20.9473" x2="22.1084" y2="20.7533" gradientUnits="userSpaceOnUse">
<stop offset="0.43" stop-color="#FFA200"/>
<stop offset="0.55" stop-color="#FF9200"/>
<stop offset="0.77" stop-color="#FF6800"/>
<stop offset="0.91" stop-color="#FF4A00"/>
</linearGradient>
<linearGradient id="paint4_linear_1_166" x1="10.7011" y1="12.3259" x2="21.4954" y2="27.4425" gradientUnits="userSpaceOnUse">
<stop offset="0.09" stop-color="#FFB816"/>
<stop offset="0.29" stop-color="#FFA200"/>
<stop offset="0.34" stop-color="#FF8D00"/>
<stop offset="0.44" stop-color="#FF7000"/>
<stop offset="0.54" stop-color="#FF5B00"/>
<stop offset="0.64" stop-color="#FF4E00"/>
<stop offset="0.73" stop-color="#FF4A00"/>
<stop offset="1" stop-color="#F03B00"/>
</linearGradient>
<linearGradient id="paint5_linear_1_166" x1="1.93225" y1="33.0605" x2="1.93225" y2="1.43046" gradientUnits="userSpaceOnUse">
<stop stop-color="#FFA200"/>
<stop offset="0.02" stop-color="#FFA000"/>
<stop offset="0.31" stop-color="#FF7B00"/>
<stop offset="0.58" stop-color="#FF6000"/>
<stop offset="0.82" stop-color="#FF5000"/>
<stop offset="1" stop-color="#FF4A00"/>
</linearGradient>
<linearGradient id="paint6_linear_1_166" x1="-0.628567" y1="47.8126" x2="16.9402" y2="-0.695663" gradientUnits="userSpaceOnUse">
<stop offset="0.01" stop-color="#FFD348"/>
<stop offset="0.28" stop-color="#FF4A00"/>
<stop offset="0.57" stop-color="#FFD348"/>
<stop offset="0.68" stop-color="#FF9B1C"/>
<stop offset="1" stop-color="#FF4A00"/>
</linearGradient>
<linearGradient id="paint7_linear_1_166" x1="-2.28146" y1="-0.944017" x2="21.5497" y2="35.443" gradientUnits="userSpaceOnUse">
<stop stop-color="#FFEAA9"/>
<stop offset="0.15" stop-color="#FF4A00"/>
<stop offset="0.37" stop-color="#FFD348"/>
<stop offset="0.58" stop-color="#FF9B1C"/>
<stop offset="0.9" stop-color="#FF4A00"/>
</linearGradient>
</defs>
</svg>
